<svg class="svg-icon" style="width: 1em;height: 1em;vertical-align: middle;fill: currentColor;overflow: hidden;" viewBox="0 0 1024 1024" version="1.1" xmlns="http://www.w3.org/2000/svg"><path d="M901.625 926.725a48.9375 48.9375 0 0 1-48.6375 48.6375h-682.5a47.6125 47.6125 0 0 1-34.3-14.3375 48.4625 48.4625 0 0 1-14.3375-34.3V48.6375A48.95 48.95 0 0 1 170.4875 0H589.3125a49.65 49.65 0 0 1 34.8125 14.3375l263.75 263.675a48.75 48.75 0 0 1 14.3375 34.825v613.8875z m0 0" fill="#EBECF0" /><path d="M901.625 926.725v48.6375a47.575 47.575 0 0 1-14.325 34.3 48.4625 48.4625 0 0 1-34.3125 14.3375h-682.5a48.625 48.625 0 0 1-48.6375-48.6375v-48.6375a48.95 48.95 0 0 0 48.6375 48.6375h682.5a48.6125 48.6125 0 0 0 48.6375-48.6375z m0 0" fill="#C1C7D0" /><path d="M24.0625 536.575h975.3625v243.75a48.6125 48.6125 0 0 1-48.6375 48.6375H73.2125a47.5 47.5 0 0 1-34.3-14.3375A48.75 48.75 0 0 1 24.575 779.8125V536.575z m0 0" fill="#0FBA6D" /><path d="M121.85 536.575V438.75L24.0625 536.575z m779.775 0l1.0375-97.7875 97.275 97.7875z m0 0" fill="#0A8E4F" /><path d="M901.625 312.8375v6.65H637.95a48.6125 48.6125 0 0 1-48.6375-48.6375V0a49.65 49.65 0 0 1 34.8125 14.3375l264.2 263.675a47.8375 47.8375 0 0 1 13.3 34.825z m0 0" fill="#C1C7D0" /><path d="M266.9875 675.4875c0-61.5625 41.25-96.8 88.1125-96.8 24.075 0 43.4375 11.1625 56.1 24.075L387.8125 631.05c-9.175-8.4375-18.8625-14.3875-32.0125-14.3875-23.825 0-43.4375 21.3375-43.4375 57.325 0 36.7375 16.875 58.0875 42.9375 58.0875 14.65 0 26.5625-7.5 35.25-16.875l23.325 27.7875c-15.6375 18.125-36.25 27.3125-60.3125 27.3125-46.8625 0-86.575-32.275-86.575-94.8125zM421.125 743.75l25.075-30.525c13.15 11.1625 30.275 18.8625 44.925 18.8625 16.375 0 24.075-6.25 24.075-16.1375 0-10.675-10.1875-14.15-26.0625-20.85l-23.5875-9.925c-19.35-7.7-37.5-23.825-37.5-50.6375 0-31.025 27.8-55.8375 67.0125-55.8375 21.35 0 43.9375 8.1875 60 24.325l-22 27.775c-12.1625-9.175-23.575-14.1375-37.975-14.1375-13.65 0-22.0875 5.4625-22.0875 15.3875 0 10.175 11.6625 14.15 28.05 20.6l23.075 9.175c22.8375 9.1875 36.4875 24.575 36.4875 50.6375 0 30.775-25.8125 57.8375-70.4875 57.8375-24.075 0-49.8875-8.9375-69-26.55zM567.8125 582.1625h46.9125L635.8125 666.25c5.4625 19.85 8.9375 38.9625 14.4 59.075h1.25c5.2125-20.1125 9.1875-39.225 14.4-59.075l20.85-84.1375h45.175l-55.6 184.6625h-53.1125z" fill="#FFFFFF" /></svg>