<svg class="svg-icon" style="width: 1em; height: 1em;vertical-align: middle;fill: currentColor;overflow: hidden;" viewBox="0 0 1024 1024" version="1.1" xmlns="http://www.w3.org/2000/svg"><path d="M297.37 327.15c-16.45 0-29.79 13.34-29.79 29.79s13.34 29.79 29.79 29.79h429.26c16.45 0 29.79-13.34 29.79-29.79s-13.34-29.79-29.79-29.79H297.37zM731.52 251.15l117.15-0.03c8.49 0 12.87-11.15 7.06-17.96L738.59 95.89c-2-2.34-4.52-3.39-6.99-3.39-4.97 0-9.77 4.23-9.77 10.68l-0.01 137.3c0.01 5.89 4.35 10.67 9.7 10.67z m8.68-112.86l76.21 89.31-76.22 0.02 0.01-89.33zM498.51 592.18c0-16.51-11.94-22.68-26.61-22.68h-27.13v45.18h26.41c16.01 0 27.33-6.16 27.33-22.5z"  /><path d="M867.68 464.08V269.95h-42v194.14H198.32v-332.1c0-4.96 3.59-8.99 8-8.99h495.34V81H206.32c-27.57 0-50 22.88-50 50.99v332.09h-61v320.17h61V892c0 28.12 22.43 50.99 50 50.99h611.35c27.57 0 50-22.87 50-50.99V784.26h61V464.08h-60.99z m-235.22 75.55c41.18 0 65.42 23.24 69.3 50.53h-34.6c-3.29-10.72-11.74-23.39-35.16-23.39-32.86 0-42.23 27.48-42.23 55.7 0 27.54 10.72 54.66 42.45 54.66 29.59 0 35.04-20.54 35.04-34.86v-1.45h-35.09v-28.36h69.03V702h-25.36c-1.34-4.92-2.21-10.42-2.65-15.78-8.87 11.96-24.5 18.46-46.74 18.46-46.45 0-72.41-35.11-72.41-80.69-0.01-48.12 27.98-84.36 78.42-84.36z m-222.33 2.32h66.21c34 0 57.09 19.14 57.09 49.56 0 34.77-26.33 50.72-57.9 50.72h-30.77V702h-34.63V541.95zM304.42 674.79c2.84 0.49 10.89 0.96 15.82 0.96 15.89 0 18.27-10.61 18.27-22.82V541.95h34.61V650.7c0 36.83-11.93 53.61-47.01 53.61-5.94 0-16.11-0.49-21.69-2.01v-27.51z m521.26 217.22c0 4.96-3.59 8.99-8 8.99H206.32c-4.41 0-8-4.03-8-8.99V784.26h627.36v107.75z"  /></svg>